<svg width="64" height="64" viewBox="0 0 64 64" fill="none" xmlns="http://www.w3.org/2000/svg">
<circle cx="32" cy="32" r="31.5" stroke="#D9C287"/>
<path d="M31.3625 35.7282L26.2625 30.4466C26.0875 30.2654 26 30.0453 26 29.7864C26 29.5275 26.0875 29.3074 26.2625 29.1262L27.125 28.2718C27.3 28.0906 27.5125 28 27.7625 28C28.0125 28 28.225 28.0906 28.4 28.2718L32 32L35.6 28.2718C35.775 28.0906 35.9875 28 36.2375 28C36.4875 28 36.7 28.0906 36.875 28.2718L37.7375 29.1262C37.9125 29.3074 38 29.5275 38 29.7864C38 30.0453 37.9125 30.2654 37.7375 30.4466L32.6375 35.7282C32.4625 35.9094 32.25 36 32 36C31.75 36 31.5375 35.9094 31.3625 35.7282Z" fill="#D9C287"/>
</svg>
